<mxfile host="Electron" modified="2024-01-24T17:37:05.988Z" agent="Mozilla/5.0 (X11; Linux x86_64) AppleWebKit/537.36 (KHTML, like Gecko) draw.io/22.1.21 Chrome/120.0.6099.109 Electron/28.1.0 Safari/537.36" etag="zCJ1iWTDjTCYpbZKf67W" version="22.1.21" type="device">
  <diagram id="G4t1x3i_cumIOjZ8GDXV" name="Page-1">
    <mxGraphModel dx="2020" dy="1203" grid="1" gridSize="10" guides="1" tooltips="1" connect="1" arrows="1" fold="1" page="1" pageScale="1" pageWidth="850" pageHeight="1100" math="0" shadow="0">
      <root>
        <mxCell id="0" />
        <mxCell id="1" parent="0" />
        <mxCell id="Ab2WFq_ZDRXyC0Tm1_-f-1" value="When a session is created the client is returned:&lt;br&gt;- session ID&lt;br&gt;- access token&lt;br&gt;- messaging server address&lt;br&gt;- full profile" style="shape=note;whiteSpace=wrap;html=1;backgroundOutline=1;darkOpacity=0.05;align=left;gradientColor=#b3b3b3;fillColor=#f5f5f5;strokeColor=#666666;" parent="1" vertex="1">
          <mxGeometry x="290" y="40" width="320" height="80" as="geometry" />
        </mxCell>
        <mxCell id="Ab2WFq_ZDRXyC0Tm1_-f-2" value="After clients create their session they&amp;nbsp;subscribe for notifications - messages, reactions etc.&lt;br&gt;Each message sent by and received from a client has a generated unique message ID which allows deduplication" style="shape=note;whiteSpace=wrap;html=1;backgroundOutline=1;darkOpacity=0.05;align=left;gradientColor=#b3b3b3;fillColor=#f5f5f5;strokeColor=#666666;" parent="1" vertex="1">
          <mxGeometry x="290" y="280" width="320" height="60" as="geometry" />
        </mxCell>
        <mxCell id="bcZL19yvxoAcIgyFT48z-1" value="" style="edgeStyle=orthogonalEdgeStyle;rounded=0;orthogonalLoop=1;jettySize=auto;html=1;entryX=0;entryY=0.5;entryDx=0;entryDy=0;startArrow=classic;startFill=1;" parent="1" source="bcZL19yvxoAcIgyFT48z-3" target="bcZL19yvxoAcIgyFT48z-6" edge="1">
          <mxGeometry relative="1" as="geometry">
            <Array as="points">
              <mxPoint x="120" y="280" />
              <mxPoint x="120" y="310" />
            </Array>
          </mxGeometry>
        </mxCell>
        <mxCell id="bcZL19yvxoAcIgyFT48z-2" value="" style="edgeStyle=orthogonalEdgeStyle;rounded=0;orthogonalLoop=1;jettySize=auto;html=1;entryX=0;entryY=0.5;entryDx=0;entryDy=0;" parent="1" source="bcZL19yvxoAcIgyFT48z-8" edge="1">
          <mxGeometry relative="1" as="geometry">
            <Array as="points">
              <mxPoint x="120" y="70" />
            </Array>
            <mxPoint x="210" y="70" as="targetPoint" />
          </mxGeometry>
        </mxCell>
        <mxCell id="bcZL19yvxoAcIgyFT48z-3" value="Client" style="shape=umlActor;verticalLabelPosition=bottom;verticalAlign=top;html=1;outlineConnect=0;" parent="1" vertex="1">
          <mxGeometry x="40" y="230" width="30" height="60" as="geometry" />
        </mxCell>
        <mxCell id="bcZL19yvxoAcIgyFT48z-4" value="Send message&lt;br&gt;Send file&lt;br&gt;React to message&lt;br&gt;Receive notifications" style="edgeStyle=orthogonalEdgeStyle;rounded=0;orthogonalLoop=1;jettySize=auto;html=1;entryX=0;entryY=0.75;entryDx=0;entryDy=0;startArrow=classic;startFill=1;" parent="1" source="bcZL19yvxoAcIgyFT48z-5" target="bcZL19yvxoAcIgyFT48z-6" edge="1">
          <mxGeometry x="0.0811" relative="1" as="geometry">
            <mxPoint as="offset" />
            <Array as="points">
              <mxPoint x="120" y="420" />
              <mxPoint x="120" y="325" />
            </Array>
          </mxGeometry>
        </mxCell>
        <mxCell id="bcZL19yvxoAcIgyFT48z-5" value="Client" style="shape=umlActor;verticalLabelPosition=bottom;verticalAlign=top;html=1;outlineConnect=0;" parent="1" vertex="1">
          <mxGeometry x="40" y="390" width="30" height="60" as="geometry" />
        </mxCell>
        <mxCell id="bcZL19yvxoAcIgyFT48z-6" value="&lt;font style=&quot;font-size: 12px&quot;&gt;Messaging&lt;/font&gt;" style="rounded=1;whiteSpace=wrap;html=1;gradientColor=#ffa500;fillColor=#ffcd28;strokeColor=#d79b00;" parent="1" vertex="1">
          <mxGeometry x="160" y="280" width="120" height="60" as="geometry" />
        </mxCell>
        <mxCell id="bcZL19yvxoAcIgyFT48z-10" value="After connecting to the Messaging server the clients&lt;br&gt;use the BFF service to:&lt;br&gt;- get user profiles&lt;br&gt;- get their chat state&lt;br&gt;- get a specific chat history" style="shape=note;whiteSpace=wrap;html=1;backgroundOutline=1;darkOpacity=0.05;align=left;gradientColor=#b3b3b3;fillColor=#f5f5f5;strokeColor=#666666;" parent="1" vertex="1">
          <mxGeometry x="290" y="350" width="320" height="80" as="geometry" />
        </mxCell>
        <mxCell id="sU0A-BeThUEduZKT2477-1" value="Register&lt;br style=&quot;border-color: var(--border-color);&quot;&gt;Create session&lt;br style=&quot;border-color: var(--border-color);&quot;&gt;Manage own&amp;nbsp;profile&lt;br style=&quot;border-color: var(--border-color);&quot;&gt;Manage connections&lt;br&gt;Search users by name&lt;br style=&quot;border-color: var(--border-color);&quot;&gt;Get public profiles&lt;br style=&quot;border-color: var(--border-color);&quot;&gt;Get user chats&lt;br style=&quot;border-color: var(--border-color);&quot;&gt;Get chat history&lt;br style=&quot;border-color: var(--border-color);&quot;&gt;Upload/download file&lt;br style=&quot;border-color: var(--border-color);&quot;&gt;Manage user files" style="edgeStyle=orthogonalEdgeStyle;rounded=0;orthogonalLoop=1;jettySize=auto;html=1;entryX=0;entryY=0.5;entryDx=0;entryDy=0;" parent="1" source="bcZL19yvxoAcIgyFT48z-3" target="bcZL19yvxoAcIgyFT48z-8" edge="1">
          <mxGeometry x="0.0345" relative="1" as="geometry">
            <Array as="points">
              <mxPoint x="120" y="270" />
            </Array>
            <mxPoint x="70" y="270" as="sourcePoint" />
            <mxPoint x="210" y="70" as="targetPoint" />
            <mxPoint as="offset" />
          </mxGeometry>
        </mxCell>
        <mxCell id="bcZL19yvxoAcIgyFT48z-8" value="&lt;font style=&quot;font-size: 12px&quot;&gt;Backend&amp;nbsp;&lt;br&gt;For Frontend&lt;/font&gt;" style="rounded=1;whiteSpace=wrap;html=1;gradientColor=#ffa500;fillColor=#ffcd28;strokeColor=#d79b00;" parent="1" vertex="1">
          <mxGeometry x="160" y="40" width="120" height="60" as="geometry" />
        </mxCell>
      </root>
    </mxGraphModel>
  </diagram>
</mxfile>
